<?xml version="1.0" encoding="UTF-8"?>
<svg width="600" height="400" viewBox="0 0 600 400" fill="none" xmlns="http://www.w3.org/2000/svg">
  <!-- Background Elements -->
  <circle cx="300" cy="200" r="180" fill="#E0E7FF" opacity="0.3"/>
  <circle cx="300" cy="200" r="150" fill="#C7D2FE" opacity="0.2"/>
  
  <!-- Laboratory Equipment -->
  <!-- Erlenmeyer Flask -->
  <path d="M250 100L220 250H380L350 100" fill="#DBEAFE" stroke="#2563EB" stroke-width="3"/>
  <path d="M240 160L360 160" stroke="#2563EB" stroke-width="2"/>
  <path d="M235 190L365 190" stroke="#2563EB" stroke-width="2"/>
  <path d="M230 220L370 220" stroke="#2563EB" stroke-width="2"/>
  
  <!-- Test Tubes -->
  <path d="M420 150L410 250H450L440 150" fill="#DBEAFE" stroke="#2563EB" stroke-width="2"/>
  <path d="M460 130L450 250H490L480 130" fill="#DBEAFE" stroke="#2563EB" stroke-width="2"/>
  
  <!-- Beaker -->
  <path d="M150 180H200V250H150V180Z" fill="#DBEAFE" stroke="#2563EB" stroke-width="2"/>
  <path d="M140 250H210" stroke="#2563EB" stroke-width="3"/>
  <path d="M160 200H190" stroke="#2563EB" stroke-width="1"/>
  <path d="M160 220H190" stroke="#2563EB" stroke-width="1"/>
  
  <!-- Molecules -->
  <circle cx="180" cy="120" r="5" fill="#2563EB"/>
  <circle cx="200" cy="140" r="5" fill="#2563EB"/>
  <circle cx="160" cy="140" r="5" fill="#2563EB"/>
  <path d="M180 120L200 140M180 120L160 140" stroke="#2563EB" stroke-width="2"/>
  
  <circle cx="420" cy="100" r="5" fill="#2563EB"/>
  <circle cx="440" cy="80" r="5" fill="#2563EB"/>
  <circle cx="400" cy="80" r="5" fill="#2563EB"/>
  <path d="M420 100L440 80M420 100L400 80" stroke="#2563EB" stroke-width="2"/>
  
  <!-- Bubbles -->
  <circle cx="270" cy="200" r="3" fill="#2563EB" opacity="0.5"/>
  <circle cx="280" cy="180" r="2" fill="#2563EB" opacity="0.5"/>
  <circle cx="290" cy="210" r="4" fill="#2563EB" opacity="0.5"/>
  <circle cx="440" cy="180" r="3" fill="#2563EB" opacity="0.5"/>
  <circle cx="430" cy="200" r="2" fill="#2563EB" opacity="0.5"/>
  <circle cx="470" cy="190" r="4" fill="#2563EB" opacity="0.5"/>
  
  <!-- Decorative Lines -->
  <path d="M100 300C150 280 200 320 250 300C300 280 350 320 400 300C450 280 500 320 550 300" 
        stroke="#2563EB" stroke-width="2" opacity="0.3"/>
  <path d="M50 320C100 300 150 340 200 320C250 300 300 340 350 320C400 300 450 340 500 320" 
        stroke="#2563EB" stroke-width="2" opacity="0.2"/>
</svg>