<?xml version="1.0" encoding="UTF-8"?>
<svg width="48" height="48" viewBox="0 0 48 48" fill="none" xmlns="http://www.w3.org/2000/svg">
  <path d="M2 2H46V46H2V2Z" fill="#DA1F3D"/>
  <path d="M2 2H46V46H2V2Z" stroke="white" stroke-width="2"/>
  <path d="M24 8C32.8366 8 40 15.1634 40 24C40 32.8366 32.8366 40 24 40C15.1634 40 8 32.8366 8 24C8 15.1634 15.1634 8 24 8ZM24 12C17.3726 12 12 17.3726 12 24C12 30.6274 17.3726 36 24 36C30.6274 36 36 30.6274 36 24C36 17.3726 30.6274 12 24 12Z" fill="white"/>
  <path d="M24 16L28 24L24 32L20 24L24 16Z" fill="white"/>
</svg> 