<svg xmlns="http://www.w3.org/2000/svg" height="800" width="1200" version="1.0" viewBox="-17.32698 -9.615075 150.16716 57.69045"><path d="M.024 36.8307h6.8925l.2764-1.5637-5.0364-.006c-1.1995 0-1.7174-.7843-1.5717-1.6106l.2565-1.45c.1467-.8282.949-1.6604 2.1454-1.6604h5.0234c1.2105 0 1.7184.8532 1.5737 1.6675l-6.8914.003-.2545 1.439 5.0164.002c1.2174-.001 1.7324.8302 1.5897 1.6165.004.005-.2854 1.5747-.2765 1.5747-.1456.8113-.949 1.6126-2.1504 1.6126H1.5917c-1.1965 0-1.7134-.8073-1.5677-1.6246m11.34 1.6256H9.506l1.395-7.9173h1.8591m81.0859 7.9213h-1.8592l1.395-7.9073H95.24m18.416 0l-.5388 3.0595h-5.717l.54-3.0595h-1.871l-1.3922 7.9073h1.8701l.5399-3.0596h5.7139l-.5389 3.0596h1.8591l1.392-7.9073m-49.701 6.2967l1.1087-6.2967h-1.8551l-1.394 7.9023h7.098l.2833-1.6056m-50.9035-1.4141l-.2475 1.403-5.5253.003.8193-4.6421h7.3315c.1467-.8392-.2036-1.6605-1.5048-1.6605h-5.5433c-1.2065 0-1.9878.8332-2.1345 1.6605l-.8213 4.6422c-.1417.8013.3523 1.6126 1.5597 1.6126h5.4316c1.412 0 2.0526-.8113 2.1933-1.6126l.454-2.5706h-4.7988l-.2046 1.1645M80.506 30.539h-7.3734l-1.397 7.9163h7.3754c.942 0 1.9798-.7425 2.1335-1.6126l.8163-4.6322c.1477-.8393-.5858-1.6605-1.5547-1.6715m-1.1097 6.3007l-5.5333-.001.8173-4.6282h5.5313zm17.4113.002l.8162-4.6362 7.3465.005c.1457-.8393-.3652-1.6615-1.5697-1.6615l-5.4834-.01c-1.2304 0-1.9898.8332-2.1285 1.6605l-.8183 4.6422c-.1516.8552.3204 1.6126 1.5528 1.6126h5.4335c1.2543 0 2.0347-.8033 2.1794-1.6096m-75.4467-.2655L26.54 30.552h-2.873l-1.394 7.9083h1.8551l1.0488-5.9375 2.1085 5.9355 2.1385-.003 4.1882-5.9285-1.0498 5.9315h1.861l1.3931-7.9033h-2.857m5.2091 6.5142l-1.006 1.389H35.125l5.651-7.9072 2.2513.004 2.888 7.9003-2.0488.003-.491-1.3851m-.5897-1.5727l-1.1735-3.2631-2.336 3.2631zm12.4027 1.5687l-1.0068 1.389H52.143l5.652-7.9072 2.2503.004 2.8829 7.9003-2.0437.003-.491-1.3851m-.5877-1.5727l-1.1735-3.2631-2.3361 3.2631zm31.7819-.0649c.1207-.6865-.5958-.6865-.5958-.6865s.7165 0 .8393-.6975c.2474-1.396.0628-.3523.3353-1.8561.1476-.8243-.4331-1.6505-1.5777-1.6505-.6157 0-5.706.001-5.706.001-.9829-.002-1.6724.002-1.6724.002l-1.3901 7.9073h1.852l.533-3.0187c3.8289.001 4.3099 0 4.684 0 .8483 0 .7365.5678.7365.5678l-.433 2.4509h1.86m-1.0827-4.4007h-5.5363l.3263-1.8571 5.5373.003zM52.106 35.3698l.2795-1.5747H47.397l-.2774 1.5747m24.7377-22.6302c0-1.7663-3.5804-3.0326-8.1518-3.6354 1.7084-4.262 2.351-7.9851.8183-8.8483-1.3192-.7424-3.6133.99-5.9853 3.825h-2.0178C54.7535 1.9203 53.076.4564 51.8297.0932c-.496-.1447-.9241-.1208-1.2714.0698-1.5537.8522-.935 4.6223.7464 8.9372-4.5843.6007-8.1787 1.87-8.1787 3.6383 0 1.8251 3.774 3.0565 8.1408 3.6373-1.375 3.4228-1.9978 6.3486-1.5717 7.8714.1387.496.3842.8482.7295 1.0428 1.5637.8791 4.3867-1.6466 7.0082-5.0943 2.1135 2.84 4.1882 4.8029 5.663 5.234.496.1447.923.1197 1.2714-.0709.3482-.1906.5997-.5378.7424-1.0338.2515-.8632.1716-2.1874-.1926-3.802h.6646v-.1766s-.3443-.037-.7724-.2584c-.2754-1.1247-.6815-2.372-1.1975-3.6962 4.3728-.5728 8.2456-1.8312 8.2456-3.6523m-.442 0c0 1.3511-3.2502 2.6344-7.9682 3.2301-.4131-1.0218-.8901-2.0846-1.422-3.1653.5578-1.1016 1.0687-2.2103 1.5158-3.29 4.8727.6247 7.8744 1.9568 7.8744 3.2252zm-9.996 1.2224a53.124 53.124 0 00.3533-.6676c.452.932.8622 1.8471 1.2244 2.7302-.2055.024-.416.046-.6266.0669zm-9.6056.1686l.8132-1.9788c.0958.2016.1906.4002.2904.6017-.2345.464-.458.923-.6726 1.3781h-.431zM53.8065 9.28c.3542-.025.7184-.046 1.0867-.0629a51.0562 51.0562 0 00-.929 1.5787c-.2775.493-.54.9839-.7964 1.4739a39.7209 39.7209 0 01-.3173-.6636zm-.8612-3.9247h4.0235c.0928.1217.1846.2444.2764.3692-.7065.95-1.405 1.9758-2.0726 3.0416a46.566 46.566 0 00-1.1845.0678l.3253-.7903zm7.3704 4.27a49.5362 49.5362 0 00-.2395-.4092c1.0678.0509 2.0786.1347 3.0236.2455-.3802.907-.8192 1.863-1.3202 2.856a50.45 50.45 0 00-.7843-1.4929 53.0752 53.0752 0 00-.517-.921c.1058-.043.2306-.0779.3853-.0968V9.625zm-.511 0h-4.1302v.1756s1.2973.2963.6486 1.4749l-1.2773 2.855h-.92a50.5272 50.5272 0 01-.7135-1.3712 55.7 55.7 0 01.936-1.7463 54.615 54.615 0 011.0727-1.8191 54.7852 54.7852 0 014.1253-.002c.0859.1427.1717.2883.2585.433zm-2.313-.9141c-.5968 0-1.1935.012-1.7883.032.6068-.962 1.2105-1.8492 1.8052-2.6545.5908.8203 1.1825 1.7104 1.7653 2.6544a53.0805 53.0805 0 00-1.7822-.032zm-4.3269 4.5344c.1487.2954.3024.5908.459.8851h-.893a39.561 39.561 0 01.434-.8851zm1.1596 2.1584c.0279.05.0578.1008.0848.1487l-.2954.6626a43.721 43.721 0 01-2.2273-.2025c.0838-.2006.1746-.4052.2644-.6088zm3.6622 1.2973h-2.1225c-.4191 0-.3532-.4002-.3532-.4002l.407-.896h2.1476l.5837-2.2812-.2195-.007s-.2595 1.0148-.984 1.0148h-.951l.984-2.1704v-1.1905h-.1048s-.1776-.1297 0-.2954h1.2264s.2236.1298 0 .2954h-.1067v1.1905l1.9698 4.3408s.0838.4002-.3523.4002c-.5678-.001-2.1245-.001-2.1245-.001zm.4301 1.3691c-.3283.482-.6566.946-.983 1.388a41.9236 41.9236 0 01-.9579-1.388zm1.7922-6.8176s-.3682-.6426-.0848-1.0747c.1637.2824.3233.5678.483.8602.3253.5927.6307 1.1815.923 1.7672a40.4713 40.4713 0 01-.3392.6457zM64.3083.6411c1.1017.6197.7953 3.8738-1.0408 8.4093-1.1137-.1358-2.2812-.2316-3.4627-.2854-.6646-1.0887-1.3442-2.1076-2.0227-3.0446.0938-.1247.1876-.2445.2794-.3652.6935.004.9819.9899.9819.9899l.2245.012-.476-1.911C61.2457 1.5003 63.3513.1013 64.3083.641zm-6.7867 4.714c-.001.002-.002.005-.004.006-.002-.001-.003-.004-.004-.006zM50.769.5504c.2425-.1317.5578-.1437.936-.032 1.1266.3294 2.6394 1.6276 4.255 3.5625h-5.691c-.3253-1.905-.1497-3.1713.5-3.5305zm-.4281 3.9217l1.9439 3.785-.3134.7624c-.0758.009-.1527.019-.2285.026-.6835-1.7344-1.1476-3.2841-1.402-4.5734zm-6.7737 8.2676c0-1.2704 3.0116-2.6045 7.8993-3.2272.0499.1217.0998.2435.1487.3672L49.337 15.404h2.336c-.0798.1856-.1626.3713-.2364.5549-4.6612-.5978-7.8694-1.8521-7.8694-3.2192zm7.075 12.1663c-.2395-.1357-.415-.3962-.5219-.7774-.4081-1.4609.2226-4.3248 1.5947-7.6947a43.1871 43.1871 0 002.2083.2125l-1.0069 2.2503s-.496 1.4629-1.9648 1.4509v.1766h4.1103v-.1766s-1.3212-.013-.8602-1.0977l.514-1.1795h1.2353a45.0143 45.0143 0 001.2085 1.7543c-2.7502 3.6273-5.3637 5.731-6.5173 5.0813zm14.0444-.7045c-.1098.3772-.2894.6376-.5319.7693-.2415.1328-.5568.1447-.936.033-1.416-.4132-3.4398-2.357-5.5134-5.1721a42.2956 42.2956 0 001.2424-1.7633h2.3001l.532 1.1795s.7134 1.1087-.8453 1.0977v.1766h3.5435c.3623 1.5717.45 2.853.2086 3.6793zm-.4112-4.4796c-.2394-.2085-.473-.482-.6626-.8492l-1.0527-2.357c.2025-.021.4031-.044.6037-.0669.46 1.1616.8372 2.2663 1.1116 3.2731z" fill="#ed1c24"/></svg>